
<global>
amp_veltrack=0
ampeg_release=0.25
xfin_hicc1=24
xfout_hicc1=127
xfout_locc1=127
</global>

<group>
group_label=Group_0-45
lpc_hicc1=42
lpc_locc1=0

<region>
hikey=a#4
hivel=127
lokey=a4
loop_end=288281
loop_mode=loop_continuous
loop_start=109324
loop_xfade=21684
lovel=1
lpc=du6IQZnY98GoUgZBk4kZQZV83L6pJ3K+tsDRwO7TJDxRZQZBBsGwwI7E9D8xc2HABeB1QMIU+r8CZMI/HuOYvu/KTj5a58m/5ToHP0yXaD0b5npAF05SwPP2h8C4g4hA
lpc_rms=-25.40
offset=754
pitch_keycenter=a#4
sample=Flute_effects1_PP_A#4.opus
</region>

<region>
hikey=a#5
hivel=127
lokey=a5
loop_end=301053
loop_mode=loop_continuous
loop_start=114168
loop_xfade=22645
lovel=1
lpc=pDT8QeU5cMFWu83AWyIiQAN6nz9IEhhB1Ucrvxj27T/3W5pALB2Ov05wjUC18xXArdHKQLvIJr+B4QZAz+gxQGSAYL/+vYvBHS8hvh9xUkHP3ydAW9LDvw2BhcAbCuq/
lpc_rms=-19.41
offset=7678
pitch_keycenter=a#5
sample=Flute_effects1_PP_A#5.opus
</region>

<region>
hivel=127
key=c4
loop_end=308451
loop_mode=loop_continuous
loop_start=116974
loop_xfade=23201
lovel=1
lpc=DwWyQZTTNsKD4dtBFCK4wHY5kUAxSQRAp7+ywI+Bf0BnFKvAq+2uP4Q6oj/hLlo/doNEQMcM0sD+J2lAXNcbwLBkGUAu3M+/z1daQAPfb8CKQH1ApGvovzPJK8DYWB1A
lpc_rms=-29.09
sample=Flute_effects1_PP_C4.opus
</region>

<region>
hikey=c5
hivel=127
lokey=b4
loop_end=303040
loop_mode=loop_continuous
loop_start=114922
loop_xfade=22794
lovel=1
lpc=W05ZQR0rjcFQXv4/QnhtQFoWAsDCA51AshiywJD4a0AuOidAQw/EwKdDm0DCalU/UGK4P1Yrg8C9aSPA/cLSQG6vWMBctKq+Cwx2QN8eDMAbAOM//S8KwLr/67//rD9A
lpc_rms=-27.92
offset=4952
pitch_keycenter=c5
sample=Flute_effects1_PP_C5.opus
</region>

<region>
hikey=c6
hivel=127
lokey=b5
loop_end=262694
loop_mode=loop_continuous
loop_start=99621
loop_xfade=19760
lovel=1
lpc=BGcRQcQhD8AHCA6/59igPcsekT9RnKM+B3tQP7e5SkAJO5o/ZPzNvg5Dc74eeQ0/KZiLP8aZ0r5LCIu/JDSFwHGXtb9G+hU+T82UP5Jkn77xGUa+RYu5vy8SAMB1F3i/
lpc_rms=-28.00
offset=16312
pitch_keycenter=c6
sample=Flute_effects1_PP_C6.opus
</region>

<region>
hikey=d4
hivel=127
lokey=c#4
loop_end=310693
loop_mode=loop_continuous
loop_start=117824
loop_xfade=23370
lovel=1
lpc=STfVQZE4ScIJMLdBnsiGv2qeK0HtWofAXTAIwe8pE0EKEODAxasVQNq4F0BI9yfA/n8FQRYgV8HRGuNAH/sBwEJQJ0DkKoi+5muXPuWd8z0iDzQ+5HHIv9ewHsCxS3lA
lpc_rms=-25.36
offset=1628
pitch_keycenter=d4
sample=Flute_effects1_PP_D4.opus
</region>

<region>
hikey=d5
hivel=127
lokey=c#5
loop_end=305663
loop_mode=loop_continuous
loop_start=115916
loop_xfade=22992
lovel=1
lpc=GlI8QpR0w8FL+IPASteNQFSOzL9lQE4/VCCaQI4L37/eWGxA3tqYwAYTBkGe6la96E5PPHUaC8D9H7FAogY4wNgAs0CBJci/Hx5RQMbZxL5go7XB6avXwF+0MUHKFhZA
lpc_rms=-20.21
offset=5535
pitch_keycenter=d5
sample=Flute_effects1_PP_D5.opus
</region>

<region>
hikey=d6
hivel=127
lokey=c#6
loop_end=379368
loop_mode=loop_continuous
loop_start=143868
loop_xfade=28536
lovel=1
lpc=0RvTQUNDsMHI7Rm/iCKnvflEMz4OjXRA/3WSPnbvtUBQSq4/I9Jvv4mgor8riQ3AHteUQIhQLcCJW/w/yV2CwP5XDcHWGIu/hl77QMiarj/UYSw/Q8vavz98UcB41YjA
lpc_rms=-17.63
offset=3706
pitch_keycenter=D6
sample=Flute_effects1_PP_D6.opus
</region>

<region>
hikey=e4
hivel=127
lokey=d#4
loop_end=282347
loop_mode=loop_continuous
loop_start=107074
loop_xfade=21238
lovel=1
lpc=nEbtQVX2R8Ir4rtBH4ElwX8phUF/w+7A4T+5PxJdlUCxJKTA3WBFwMo83D+sVgZAtCOVQJ2p6sCiwXxA5re3vubcCkCX17bA0zeiQLeQPr+Mq6w/sTwAwCn8UL/7aDpA
lpc_rms=-24.04
offset=1862
pitch_keycenter=e4
sample=Flute_effects1_PP_E4.opus
</region>

<region>
hikey=e5
hivel=127
lokey=d#5
loop_end=299712
loop_mode=loop_continuous
loop_start=113660
loop_xfade=22544
lovel=1
lpc=qMwAQqltkMHXd5NA2PNkwAnwa74c+SRABtI1v3wWH0Cz/CA/Lq6tP3/TkT9Qy4S/nWXyP4zTSMAxPGk/P8DPPXHevEBfYxDBeocGwTdCxsCn5ntAzP6SQJVLx7+lB/i/
lpc_rms=-22.39
offset=5395
pitch_keycenter=e5
sample=Flute_effects1_PP_E5.opus
</region>

<region>
hikey=f#4
hivel=127
lokey=f4
loop_end=280623
loop_mode=loop_continuous
loop_start=106420
loop_xfade=21108
lovel=1
lpc=F3VsQkUI3cLJ3Y5CaAbkwbk4tUGZbaPAM4INwfYdo0E/IozBqpR4QI+4Tr8r4+O+fJUQQQ2GhcGZJqlBKV75wGhFqkDr6ALBn9OjQDFPFMGkbddAeZcEPvGcREFqUwzB
lpc_rms=-19.70
pitch_keycenter=f#4
sample=Flute_effects1_PP_F#4.opus
</region>

<region>
hikey=f#5
hivel=127
lokey=f5
loop_end=276783
loop_mode=loop_continuous
loop_start=104964
loop_xfade=20819
lovel=1
lpc=DIctQl5bycBbaqC/I68mwKy3HbyAZx1AIAWnQKDRw0Bn5ERAgZQcQJSvkD5+GZq/eJp0QA02fkDISBTAgLK5QJzF+MEsx4HAnMbzv8tBrkDj2DNAN0sfQEw3gsCXW+3A
lpc_rms=-17.96
offset=8595
pitch_keycenter=f#5
sample=Flute_effects1_PP_F#5.opus
</region>

<region>
hikey=g#4
hivel=127
lokey=g4
loop_end=308797
loop_mode=loop_continuous
loop_start=117105
loop_xfade=23227
lovel=1
lpc=mcNIQd4is8GiKQ1B65JOPzs2HEDPnX29XVAwwEpuZz9uFNM/KewHwJe6hz/eCoW/GaYyQHHacsBD+No/p+wwvz9eoz9VjWo/zeuTPeNXB8AIzpc/y1IEwIoLF0Dz3Ty/
lpc_rms=-29.41
pitch_keycenter=g#4
sample=Flute_effects1_PP_G#4.opus
</region>

<region>
hikey=g#5
hivel=127
lokey=g5
loop_end=292533
loop_mode=loop_continuous
loop_start=110937
loop_xfade=22004
lovel=1
lpc=6K+9QfKA8sAAgDHAYWaRv3sJ+D7l2mBA+WfDv9Ju20Ddg6dAhdwNQD5u1T9YsJA+AEbKQHbLj8Do/33AFmspwbIE1EBl1XhAaIwXQOVilT/IrPe/nqNgP7nge8CaOmvA
lpc_rms=-20.30
offset=8081
pitch_keycenter=g#5
sample=Flute_effects1_PP_G#5.opus
</region>
</group>

<group>
group_label=Group_46-90
lpc_hicc1=84
lpc_locc1=43

<region>
hikey=a#4
hivel=127
lokey=a4
loop_end=288281
loop_mode=loop_continuous
loop_start=109324
loop_xfade=21684
lovel=1
lpc=du6IQZnY98GoUgZBk4kZQZV83L6pJ3K+tsDRwO7TJDxRZQZBBsGwwI7E9D8xc2HABeB1QMIU+r8CZMI/HuOYvu/KTj5a58m/5ToHP0yXaD0b5npAF05SwPP2h8C4g4hA
lpc_rms=-25.40
offset=754
pitch_keycenter=a#4
sample=Flute_effects1_MF_A#4.opus
</region>

<region>
hikey=a#5
hivel=127
lokey=a5
loop_end=301053
loop_mode=loop_continuous
loop_start=114168
loop_xfade=22645
lovel=1
lpc=pDT8QeU5cMFWu83AWyIiQAN6nz9IEhhB1Ucrvxj27T/3W5pALB2Ov05wjUC18xXArdHKQLvIJr+B4QZAz+gxQGSAYL/+vYvBHS8hvh9xUkHP3ydAW9LDvw2BhcAbCuq/
lpc_rms=-19.41
offset=7678
pitch_keycenter=a#5
sample=Flute_effects1_MF_A#5.opus
</region>

<region>
hivel=127
key=c4
loop_end=308451
loop_mode=loop_continuous
loop_start=116974
loop_xfade=23201
lovel=1
lpc=DwWyQZTTNsKD4dtBFCK4wHY5kUAxSQRAp7+ywI+Bf0BnFKvAq+2uP4Q6oj/hLlo/doNEQMcM0sD+J2lAXNcbwLBkGUAu3M+/z1daQAPfb8CKQH1ApGvovzPJK8DYWB1A
lpc_rms=-29.09
sample=Flute_effects1_MF_C4.opus
</region>

<region>
hikey=c5
hivel=127
lokey=b4
loop_end=303040
loop_mode=loop_continuous
loop_start=114922
loop_xfade=22794
lovel=1
lpc=W05ZQR0rjcFQXv4/QnhtQFoWAsDCA51AshiywJD4a0AuOidAQw/EwKdDm0DCalU/UGK4P1Yrg8C9aSPA/cLSQG6vWMBctKq+Cwx2QN8eDMAbAOM//S8KwLr/67//rD9A
lpc_rms=-27.92
offset=4952
pitch_keycenter=c5
sample=Flute_effects1_MF_C5.opus
</region>

<region>
hikey=c6
hivel=127
lokey=b5
loop_end=262694
loop_mode=loop_continuous
loop_start=99621
loop_xfade=19760
lovel=1
lpc=BGcRQcQhD8AHCA6/59igPcsekT9RnKM+B3tQP7e5SkAJO5o/ZPzNvg5Dc74eeQ0/KZiLP8aZ0r5LCIu/JDSFwHGXtb9G+hU+T82UP5Jkn77xGUa+RYu5vy8SAMB1F3i/
lpc_rms=-28.00
offset=16312
pitch_keycenter=c6
sample=Flute_effects1_MF_C6.opus
</region>

<region>
hikey=d4
hivel=127
lokey=c#4
loop_end=310693
loop_mode=loop_continuous
loop_start=117824
loop_xfade=23370
lovel=1
lpc=STfVQZE4ScIJMLdBnsiGv2qeK0HtWofAXTAIwe8pE0EKEODAxasVQNq4F0BI9yfA/n8FQRYgV8HRGuNAH/sBwEJQJ0DkKoi+5muXPuWd8z0iDzQ+5HHIv9ewHsCxS3lA
lpc_rms=-25.36
offset=1628
pitch_keycenter=d4
sample=Flute_effects1_MF_D4.opus
</region>

<region>
hikey=d5
hivel=127
lokey=c#5
loop_end=305663
loop_mode=loop_continuous
loop_start=115916
loop_xfade=22992
lovel=1
lpc=GlI8QpR0w8FL+IPASteNQFSOzL9lQE4/VCCaQI4L37/eWGxA3tqYwAYTBkGe6la96E5PPHUaC8D9H7FAogY4wNgAs0CBJci/Hx5RQMbZxL5go7XB6avXwF+0MUHKFhZA
lpc_rms=-20.21
offset=5535
pitch_keycenter=d5
sample=Flute_effects1_MF_D5.opus
</region>

<region>
hikey=d6
hivel=127
lokey=c#6
loop_end=379368
loop_mode=loop_continuous
loop_start=143868
loop_xfade=28536
lovel=1
lpc=0RvTQUNDsMHI7Rm/iCKnvflEMz4OjXRA/3WSPnbvtUBQSq4/I9Jvv4mgor8riQ3AHteUQIhQLcCJW/w/yV2CwP5XDcHWGIu/hl77QMiarj/UYSw/Q8vavz98UcB41YjA
lpc_rms=-17.63
offset=3706
pitch_keycenter=D6
sample=Flute_effects1_MF_D6.opus
</region>

<region>
hikey=e4
hivel=127
lokey=d#4
loop_end=282347
loop_mode=loop_continuous
loop_start=107074
loop_xfade=21238
lovel=1
lpc=nEbtQVX2R8Ir4rtBH4ElwX8phUF/w+7A4T+5PxJdlUCxJKTA3WBFwMo83D+sVgZAtCOVQJ2p6sCiwXxA5re3vubcCkCX17bA0zeiQLeQPr+Mq6w/sTwAwCn8UL/7aDpA
lpc_rms=-24.04
offset=1862
pitch_keycenter=e4
sample=Flute_effects1_MF_E4.opus
</region>

<region>
hikey=e5
hivel=127
lokey=d#5
loop_end=299712
loop_mode=loop_continuous
loop_start=113660
loop_xfade=22544
lovel=1
lpc=qMwAQqltkMHXd5NA2PNkwAnwa74c+SRABtI1v3wWH0Cz/CA/Lq6tP3/TkT9Qy4S/nWXyP4zTSMAxPGk/P8DPPXHevEBfYxDBeocGwTdCxsCn5ntAzP6SQJVLx7+lB/i/
lpc_rms=-22.39
offset=5395
pitch_keycenter=e5
sample=Flute_effects1_MF_E5.opus
</region>

<region>
hikey=f#4
hivel=127
lokey=f4
loop_end=280623
loop_mode=loop_continuous
loop_start=106420
loop_xfade=21108
lovel=1
lpc=F3VsQkUI3cLJ3Y5CaAbkwbk4tUGZbaPAM4INwfYdo0E/IozBqpR4QI+4Tr8r4+O+fJUQQQ2GhcGZJqlBKV75wGhFqkDr6ALBn9OjQDFPFMGkbddAeZcEPvGcREFqUwzB
lpc_rms=-19.70
pitch_keycenter=f#4
sample=Flute_effects1_MF_F#4.opus
</region>

<region>
hikey=f#5
hivel=127
lokey=f5
loop_end=276783
loop_mode=loop_continuous
loop_start=104964
loop_xfade=20819
lovel=1
lpc=DIctQl5bycBbaqC/I68mwKy3HbyAZx1AIAWnQKDRw0Bn5ERAgZQcQJSvkD5+GZq/eJp0QA02fkDISBTAgLK5QJzF+MEsx4HAnMbzv8tBrkDj2DNAN0sfQEw3gsCXW+3A
lpc_rms=-17.96
offset=8595
pitch_keycenter=f#5
sample=Flute_effects1_MF_F#5.opus
</region>

<region>
hikey=g#4
hivel=127
lokey=g4
loop_end=308797
loop_mode=loop_continuous
loop_start=117105
loop_xfade=23227
lovel=1
lpc=mcNIQd4is8GiKQ1B65JOPzs2HEDPnX29XVAwwEpuZz9uFNM/KewHwJe6hz/eCoW/GaYyQHHacsBD+No/p+wwvz9eoz9VjWo/zeuTPeNXB8AIzpc/y1IEwIoLF0Dz3Ty/
lpc_rms=-29.41
pitch_keycenter=g#4
sample=Flute_effects1_MF_G#4.opus
</region>

<region>
hikey=g#5
hivel=127
lokey=g5
loop_end=292533
loop_mode=loop_continuous
loop_start=110937
loop_xfade=22004
lovel=1
lpc=6K+9QfKA8sAAgDHAYWaRv3sJ+D7l2mBA+WfDv9Ju20Ddg6dAhdwNQD5u1T9YsJA+AEbKQHbLj8Do/33AFmspwbIE1EBl1XhAaIwXQOVilT/IrPe/nqNgP7nge8CaOmvA
lpc_rms=-20.30
offset=8081
pitch_keycenter=g#5
sample=Flute_effects1_MF_G#5.opus
</region>
</group>

<group>
group_label=Group_91-127
lpc_hicc1=127
lpc_locc1=85

<region>
hikey=a#4
hivel=127
lokey=a4
loop_end=283533
loop_mode=loop_continuous
loop_start=107524
loop_xfade=21327
lovel=1
lpc=YPBsQhaXPMIKJ6VAQ3HRPz0oFkEjiDZBWEtzQHFDMT9zItBAcxBIQFij+z+7+h5AB/LKQJQRWL+b6gdBp7/xv/QP10Bvbx7CREeEQSKtmUFi1ITA36arPHuWNsH93Bm/
lpc_rms=-5.69
offset=1173
pitch_keycenter=a#4
sample=Flute_effects1_FF_A#4.opus
</region>

<region>
hikey=a#5
hivel=127
lokey=a5
loop_end=318227
loop_mode=loop_continuous
loop_start=120681
loop_xfade=23937
lovel=1
lpc=iBZ9QaJH0sB1AU/AXL9tQLuLHcB+uIVAt26bQFNL3L42P/E/PBOEPz5rsb/I448/9vabP4zFuL1QNAs/qHSyP9qRNsAD9wvBN2TkP3q1kkB8FMK/9lhhP8JSCMCZlpbA
lpc_rms=-18.17
offset=222
pitch_keycenter=a#5
sample=Flute_effects1_FF_A#5.opus
</region>

<region>
hivel=127
key=c4
loop_end=295008
loop_mode=loop_continuous
loop_start=111875
loop_xfade=22190
lovel=1
lpc=HGZKQWbvksHWh7NAWR4rPgIpDUArygBAMPgWwB6NNz7MFKg/VuKSvzvRQz9dDBPAd5gyQIhe474d6TpAFqrMv7MQrTxNEZ6/Hrmdvm35lT/EAl8/5iOPP1AZ4L+zAFg/
lpc_rms=-20.14
offset=4421
sample=Flute_effects1_FF_C4.opus
</region>

<region>
hikey=c5
hivel=127
lokey=b4
loop_end=315386
loop_mode=loop_continuous
loop_start=119604
loop_xfade=23723
lovel=1
lpc=1i8dQknPHMJYNAdB+cSIvzodD0HXD0BByY8pQM2CL0Bax1vAgQXDQFaltEDYZKVAqh/7QIszOkAcgyJBtI+6wej1hEGNk5RBQAONvmldhUBx+w/BukfJP8YR6j4F30tB
lpc_rms=-7.22
offset=4090
pitch_keycenter=c5
sample=Flute_effects1_FF_C5.opus
</region>

<region>
hikey=c6
hivel=127
lokey=b5
loop_end=299606
loop_mode=loop_continuous
loop_start=113619
loop_xfade=22536
lovel=1
lpc=Om9yQu+40MGB9hjBuymBQGQBoTwvbV1BPSlLQGTkZUH7tbRAnZKLv5oIv0CIpcY9F/ePQCsrYEBbVK0/48EawjP/QsAhZbpBfHc0QEd0ZL/cbG3AX0b7wLBl5sBi8n7A
lpc_rms=-8.06
offset=348
pitch_keycenter=c6
sample=Flute_effects1_FF_C6.opus
</region>

<region>
hikey=d4
hivel=127
lokey=c#4
loop_end=286059
loop_mode=loop_continuous
loop_start=108482
loop_xfade=21517
lovel=1
lpc=a5QzQbVZccGyBMM/bWIfQNCq1D+ewyFAbl+rvw/rY79hx7u/svyKv9PpGUCrJJk/iDOyP4MEHcD609A+XH7+vmBLUj/IX6W/VxCBP2I0vD8IFno/4NhGv/OaP8ARW9w/
lpc_rms=-21.01
offset=4758
pitch_keycenter=d4
sample=Flute_effects1_FF_D4.opus
</region>

<region>
hikey=d5
hivel=127
lokey=c#5
loop_end=324852
loop_mode=loop_continuous
loop_start=123193
loop_xfade=24435
lovel=1
lpc=YkexQfxzdsE9/jC+WzzNQCOrIT/nxlJApaFNQPA8nECayxJATovPP6L87kDvlLo/L3XVQFsi6cBO04y/RkhTQRHGaD9OOaM/sgngPwjvhT+xq1U+NHhGPqUJTEBISYO/
lpc_rms=-11.16
offset=4162
pitch_keycenter=d5
sample=Flute_effects1_FF_D5.opus
</region>

<region>
hikey=d6
hivel=127
lokey=c#6
loop_end=261835
loop_mode=loop_continuous
loop_start=99296
loop_xfade=19695
lovel=1
lpc=lyVwQalp+8BfG27AviliQKtUYr9HREY/BK8BQIagr7/1OK4/XK94P0XTAj6PItw+WaGAP/06fz6oBAA+1kCsP/D6yj5/QZm+rjkhQOcFCcDJzwvBpDfKP7NxzUD9Gs2/
lpc_rms=-20.46
pitch_keycenter=D6
sample=Flute_effects1_FF_D6.opus
</region>

<region>
hikey=e4
hivel=127
lokey=d#4
loop_end=329268
loop_mode=loop_continuous
loop_start=124868
loop_xfade=24767
lovel=1
lpc=FuDSQUjZjsE1E/O/WCcHQEdz6D9/kFZAoxrKPu4LZsCH7gA/evWsPTEFYUBN44a/r7gSv83ocr9fw5RAtVEvwPRmcDzNMU+/8voNQBoC7D8O18o+lS0wvxlJc8A1l8HA
lpc_rms=-15.31
offset=9781
pitch_keycenter=e4
sample=Flute_effects1_FF_E4.opus
</region>

<region>
hikey=e5
hivel=127
lokey=d#5
loop_end=318413
loop_mode=loop_continuous
loop_start=120752
loop_xfade=23951
lovel=1
lpc=t2SOQQ3A88BIL47A/3CUQDAbUUC4gwVALnWGPnXInUDS7ak/t4/SviFNJEBay5o/J4AeQGOxH798Es7Acw9NwHauz0BrPcY/FVYEwH1mQb+6/nO/YQ2jv9pRAr/6k6M+
lpc_rms=-14.59
offset=6089
pitch_keycenter=e5
sample=Flute_effects1_FF_E5.opus
</region>

<region>
hikey=f#4
hivel=127
lokey=f4
loop_end=290082
loop_mode=loop_continuous
loop_start=110008
loop_xfade=21820
lovel=1
lpc=rvkeQeHd2cD7rVK9z1/9vlcgxj+C/qU/s731Pbbmpz+VxyC/FInwPlVPtT9Ofo0/wf8TPwmkdL9O6uY/o2rGPI1yvT9jWQc/B9KNPmGkuT3uXFI/8GZZwLIzvb9+C4tA
lpc_rms=-23.66
pitch_keycenter=f#4
sample=Flute_effects1_FF_F#4.opus
</region>

<region>
hikey=f#5
hivel=127
lokey=f5
loop_end=313368
loop_mode=loop_continuous
loop_start=118838
loop_xfade=23571
lovel=1
lpc=J1mQQb3bo8DZrajA/LcyQArGjz8WzixA2PQQvnW6CUCKGKQ/004FP6Ak3T81in+/1dmNQNLp0L4Mzfc+kJlmwIffhcCw/vW/J9UhQFxkFkBuEFw+lhhYv+1yOb+a2eG+
lpc_rms=-15.70
offset=7064
pitch_keycenter=f#5
sample=Flute_effects1_FF_F#5.opus
</region>

<region>
hikey=g#4
hivel=127
lokey=g4
loop_end=289891
loop_mode=loop_continuous
loop_start=109935
loop_xfade=21805
lovel=1
lpc=H6X3Qa76F8FDEiXBEUXIQOvZhkDqNaRA4MsMQOjfRUBYgEVATrc+QAhPrEA8iwU/JbqYQEt+oD+SxpVASIQXQFSgaEBTSJBAd8SvvxhCcsH+EV29Yd9SQQtvcUCiZqXA
lpc_rms=-13.37
offset=8345
pitch_keycenter=g#4
sample=Flute_effects1_FF_G#4.opus
</region>

<region>
hikey=g#5
hivel=127
lokey=g5
loop_end=279632
loop_mode=loop_continuous
loop_start=106044
loop_xfade=21034
lovel=1
lpc=xp4YQnruZ8H+dabA0TKzQMi0ZEAfFNRAKxquQFpFCkHZrmNAw1uhP6/fnUD6ymdApT60QBfg+D5jhHTB5iX3wA64S0E7FpdAGMkrvxQIBMCjeIbA1WAuwCsCT78qZ6W+
lpc_rms=-7.90
offset=2771
pitch_keycenter=g#5
sample=Flute_effects1_FF_G#5.opus
</region>
</group>